HIERARCHY
ROOT SpineBase
{
  OFFSET 0.000000 0.000000 0.000000
  CHANNELS 6 Xposition Yposition Zposition Zrotation Xrotation Yrotation
  JOINT SpineMid
  {
    OFFSET -0.000000 39.052523 0.000000
    CHANNELS 3 Zrotation Xrotation Yrotation
    JOINT SpineShoulder
    {
      OFFSET 0.234334 28.927448 -0.855016
      CHANNELS 3 Zrotation Xrotation Yrotation
      JOINT Neck
      {
        OFFSET 0.168481 9.538795 -0.588184
        CHANNELS 3 Zrotation Xrotation Yrotation
        JOINT Head
        {
          OFFSET 5.352835 12.395489 2.060380
          CHANNELS 3 Zrotation Xrotation Yrotation
          End Site
          {
            OFFSET 0 0 0
          }
        }
      }
      JOINT ShoulderLeft
      {
        OFFSET -6.691637 -2.816097 -12.031094
        CHANNELS 3 Zrotation Xrotation Yrotation
        JOINT ElbowLeft
        {
          OFFSET -1.833266 -23.677907 -6.543484
          CHANNELS 3 Zrotation Xrotation Yrotation
          JOINT WristLeft
          {
            OFFSET 4.996055 -24.609386 -2.084064
            CHANNELS 3 Zrotation Xrotation Yrotation
            JOINT HandLeft
            {
              OFFSET 2.411126 -8.556159 2.912865
              CHANNELS 3 Zrotation Xrotation Yrotation
              JOINT HandTipLeft
              {
                OFFSET 4.006471 -7.568836 -3.250654
                CHANNELS 3 Zrotation Xrotation Yrotation
                End Site
                {
                  OFFSET 0 0 0
                }
              }
              JOINT ThumbLeft
              {
                OFFSET -2.764503 -2.203022 -0.354471
                CHANNELS 3 Zrotation Xrotation Yrotation
                End Site
                {
                  OFFSET 0 0 0
                }
              }
            }
          }
        }
      }
      JOINT ShoulderRight
      {
        OFFSET 5.273517 -8.134371 17.807893
        CHANNELS 3 Zrotation Xrotation Yrotation
        JOINT ElbowRight
        {
          OFFSET 4.249419 -24.138682 6.765631
          CHANNELS 3 Zrotation Xrotation Yrotation
          JOINT WristRight
          {
            OFFSET 2.699278 -21.207128 -12.985717
            CHANNELS 3 Zrotation Xrotation Yrotation
            JOINT HandRight
            {
              OFFSET -0.043327 -3.251428 0.011030
              CHANNELS 3 Zrotation Xrotation Yrotation
              JOINT HandTipRight
              {
                OFFSET 0.299411 -4.080974 -0.540602
                CHANNELS 3 Zrotation Xrotation Yrotation
                End Site
                {
                  OFFSET 0 0 0
                }
              }
              JOINT ThumbRight
              {
                OFFSET 2.038849 -1.213614 0.026013
                CHANNELS 3 Zrotation Xrotation Yrotation
                End Site
                {
                  OFFSET 0 0 0
                }
              }
            }
          }
        }
      }
    }
  }
  JOINT HipLeft
  {
    OFFSET -2.554022 1.139650 -9.500532
    CHANNELS 3 Zrotation Xrotation Yrotation
    JOINT KneeLeft
    {
      OFFSET -2.241997 -33.607196 2.349702
      CHANNELS 3 Zrotation Xrotation Yrotation
      JOINT AnkleLeft
      {
        OFFSET -6.690845 -32.239529 2.285826
        CHANNELS 3 Zrotation Xrotation Yrotation
        JOINT FootLeft
        {
          OFFSET 4.100931 -6.969813 2.239708
          CHANNELS 3 Zrotation Xrotation Yrotation
          End Site
          {
            OFFSET 0 0 0
          }
        }
      }
    }
  }
  JOINT HipRight
  {
    OFFSET 3.608408 0.426264 2.517942
    CHANNELS 3 Zrotation Xrotation Yrotation
    JOINT KneeRight
    {
      OFFSET 0.723760 -32.884866 12.887190
      CHANNELS 3 Zrotation Xrotation Yrotation
      JOINT AnkleRight
      {
        OFFSET -23.022550 -32.082837 -12.107975
        CHANNELS 3 Zrotation Xrotation Yrotation
        JOINT FootRight
        {
          OFFSET 10.322439 -5.990450 4.229002
          CHANNELS 3 Zrotation Xrotation Yrotation
          End Site
          {
            OFFSET 0 0 0
          }
        }
      }
    }
  }
}
MOTION
Frames: 6
Frame Time: 0.033333
-53.477708 72.395952 351.858433 -9.110218 -0.646391 -53.040101 -0.594138 -0.407983 52.722069 -0.647990 -0.179546 -0.361097 -4.911757 0.779660 3.090313 0.000000 0.000000 0.000000 -1.127321 0.827087 3.883221 6.286513 0.215884 -2.481165 1.299239 6.018463 0.172397 -8.760414 -16.784887 -3.149893 0.000000 0.000000 0.000000 0.000000 0.000000 0.000000 11.030028 -1.451001 0.354042 -11.099422 -1.088187 6.565966 -46.679752 -16.718416 -14.368116 33.864484 32.318235 1.376262 0.000000 0.000000 0.000000 0.000000 0.000000 0.000000 4.400589 12.380355 52.773705 -2.346309 -3.175134 -0.011097 -2.662411 -1.347565 -1.290956 0.000000 0.000000 0.000000 3.403249 8.198838 52.703279 0.526415 -1.582640 0.177754 2.363065 -1.486619 -0.825762 0.000000 0.000000 0.000000
-54.389115 71.543513 350.883867 -10.970593 0.395909 -50.393904 -0.196470 -0.380451 50.081098 -0.712504 -0.175069 -0.430142 -4.051797 -2.170181 3.825596 0.000000 0.000000 0.000000 -2.143033 -0.421549 4.639759 7.574039 1.627111 -2.829711 1.951559 6.318853 0.000529 -11.533887 -18.578245 -3.088013 0.000000 0.000000 0.000000 0.000000 0.000000 0.000000 13.318609 -0.282582 1.032367 -14.897275 -6.255332 6.922979 -42.071605 -13.858434 -13.273910 32.309914 28.086289 0.715129 0.000000 0.000000 0.000000 0.000000 0.000000 0.000000 9.032926 11.937650 49.809958 -1.788770 -0.588623 -0.169737 -1.649087 -1.313083 -0.316100 0.000000 0.000000 0.000000 4.991303 8.302904 49.731804 5.013882 -5.644825 2.233674 -0.355705 7.619601 6.768215 0.000000 0.000000 0.000000
-55.889845 70.551113 349.907240 -13.177053 1.308582 -46.858303 0.306735 -0.013115 46.591110 -0.546877 -0.053564 -0.472158 -3.290650 -5.108129 4.427020 0.000000 0.000000 0.000000 -3.598757 -2.573628 5.293465 8.183301 3.946392 -3.100723 3.366193 7.210945 -0.063378 -16.558148 -19.924683 -2.236775 0.000000 0.000000 0.000000 0.000000 0.000000 0.000000 13.792647 1.803970 1.499566 -16.782614 -13.659922 6.203687 -35.807944 -9.319093 -10.619493 31.426364 17.139504 -2.164697 0.000000 0.000000 0.000000 0.000000 0.000000 0.000000 14.395711 11.884946 45.892856 -2.178827 1.818968 -0.436338 -0.298257 0.164113 1.500067 0.000000 0.000000 0.000000 10.026595 8.692425 46.245476 7.518918 -6.904210 2.765852 -8.429789 18.526608 18.524756 0.000000 0.000000 0.000000
-57.536723 69.520183 349.107933 -15.323477 2.006412 -42.362537 0.655733 0.377658 42.172902 -0.278860 -0.009403 -0.510421 -1.672618 -7.295211 4.771760 0.000000 0.000000 0.000000 -5.124259 -4.965593 5.800217 8.317531 6.910467 -3.117235 4.628511 6.922290 -0.726391 -20.309669 -22.898478 -2.953871 0.000000 0.000000 0.000000 0.000000 0.000000 0.000000 12.724226 3.513567 1.531185 -16.300117 -20.024848 5.454810 -30.232803 -4.669730 -8.231222 29.882057 13.574277 -2.509422 0.000000 0.000000 0.000000 0.000000 0.000000 0.000000 19.798985 11.447109 41.065962 -3.059817 4.045306 -0.753368 1.265156 2.397134 3.784863 0.000000 0.000000 0.000000 15.474759 7.146982 41.561227 11.096141 -7.279010 3.379569 -24.376535 29.447433 35.332178 0.000000 0.000000 0.000000
-58.762251 68.626300 349.182850 -16.843975 1.884137 -37.808755 0.748546 0.736012 37.631684 0.069035 0.317340 -0.485162 -0.910971 -8.209684 4.902064 0.000000 0.000000 0.000000 -6.758266 -7.075109 6.130337 7.702200 9.524574 -2.949632 6.371079 6.781684 -1.343165 -25.941238 -24.272384 -2.336200 0.000000 0.000000 0.000000 0.000000 0.000000 0.000000 9.923164 5.990562 1.352564 -13.613381 -26.611065 4.426634 -24.325638 1.523327 -5.415936 27.298559 5.791404 -2.969573 0.000000 0.000000 0.000000 0.000000 0.000000 0.000000 22.125875 11.493851 36.312129 -3.202868 3.866493 -0.789052 -0.300766 7.182233 6.260611 0.000000 0.000000 0.000000 18.982628 6.485173 37.108063 14.374288 -9.176274 4.106511 -45.171504 36.011157 56.879392 0.000000 0.000000 0.000000
-59.521869 67.947792 350.041473 -17.683536 1.183114 -32.921785 0.657807 1.018647 32.681567 0.422832 0.604132 -0.443546 -0.378985 -7.233931 4.677664 0.000000 0.000000 0.000000 -8.940015 -8.770210 6.470570 6.943626 11.313178 -2.940822 7.599454 7.053125 -2.195461 -29.722005 -25.853188 -1.714666 0.000000 0.000000 0.000000 0.000000 0.000000 0.000000 6.508742 6.933511 0.667614 -8.763652 -30.890524 4.305639 -21.661212 11.062742 -0.888868 25.007997 -0.573960 -1.643174 0.000000 0.000000 0.000000 0.000000 0.000000 0.000000 22.264656 12.464702 31.257051 -2.722945 1.899156 -0.647962 4.376656 8.271924 8.190727 0.000000 0.000000 0.000000 20.707869 6.207231 32.372810 17.464845 -11.865127 5.214863 -64.913244 36.448550 75.353310 0.000000 0.000000 0.000000
